<svg xmlns="http://www.w3.org/2000/svg" version="1.1" xmlns:xlink="http://www.w3.org/1999/xlink" width="1000px" height="830px"><svg version="1.0" xmlns="http://www.w3.org/2000/svg" width="1000px" height="830px" viewBox="0 0 1000 830" preserveAspectRatio="xMidYMid meet">
 <g fill="#009639">
  <path d="M361 768.6 c-14.9 -3.2 -25.8 -8.6 -34.1 -16.9 -9.5 -9.6 -14.9 -24.3 -14.9 -40.7 l0 -8.7 12.8 -0.6 c7 -0.4 15 -0.7 17.8 -0.7 l5.1 0 0.5 7.8 c0.9 12.9 4.7 19.2 14 23.2 10.2 4.4 29.9 4.3 39.4 -0.2 9.3 -4.3 15.5 -15.2 13.5 -23.9 -1.9 -8.6 -4.5 -10.7 -31.2 -24.7 -32.3 -17 -35.6 -19.4 -42.3 -30.5 -8.6 -14.3 -8.8 -37.7 -0.4 -54.7 4.6 -9.5 15.4 -20 25 -24.4 11.3 -5.2 16.4 -6.1 34.3 -6.1 24.5 0 36.2 4.1 49.1 16.9 10 10 14.9 20.9 16.8 37.2 l0.6 5.2 -12.7 0.6 c-7.1 0.4 -15.2 0.8 -18.2 0.9 l-5.4 0.2 -1.2 -5.5 c-2.1 -10.4 -7.2 -17.1 -15.4 -20.6 -2 -0.9 -7.7 -1.8 -12.7 -2.1 -15 -0.9 -24.4 3.1 -28.5 12.2 -3.8 8.3 -1 17.3 7.1 23.3 2.5 1.8 14.3 8.4 26.2 14.7 11.9 6.2 24.1 13.1 27.1 15.3 14.7 10.9 20.5 23.9 19.5 43.6 -0.9 17.3 -8.1 32.4 -20.6 43.6 -6.3 5.7 -18.6 12.1 -27.7 14.6 -8.2 2.2 -34.7 2.8 -43.5 1z"></path>
  <path d="M89.2 765.3 c0.2 -1 9.6 -45.3 20.9 -98.5 l20.4 -96.8 18.8 0 c10.3 0 18.7 0.4 18.7 0.8 0 0.5 -9 43.6 -20.1 95.8 -11 52.2 -20.3 96.1 -20.6 97.7 l-0.5 2.7 -19 0 c-17.6 0 -19 -0.1 -18.6 -1.7z"></path>
  <path d="M143.5 764.8 c0.3 -1.3 9.7 -45.5 20.8 -98.3 l20.3 -96 17.6 -0.3 17.6 -0.2 2.6 7.2 c1.4 4 11.6 33.2 22.6 64.8 10.9 31.6 19.9 57.2 20 56.9 0 -0.3 6.1 -29.3 13.5 -64.4 7.4 -35.1 13.5 -64 13.5 -64.2 0 -0.2 7.9 -0.3 17.5 -0.3 9.6 0 17.5 0.4 17.5 0.9 0 0.5 -9 43.6 -20 95.7 -11 52.2 -20.3 96.1 -20.6 97.7 l-0.6 2.7 -17.6 0 -17.7 0 -21.9 -64 c-12.1 -35.2 -22.2 -64 -22.5 -64 -0.4 0 -6.7 28.8 -14.1 64 l-13.5 64 -17.8 0 -17.7 0 0.5 -2.2z"></path>
  <path d="M453.6 764.3 c0.3 -1.6 9.6 -45.8 20.7 -98.3 l20.2 -95.5 66.8 -0.3 66.7 -0.2 -0.5 2.2 c-1.2 5 -6.5 30.3 -6.5 31 0 0.5 -21.5 0.8 -47.8 0.8 l-47.9 0 -4.5 21.3 -4.4 21.2 45.8 0.3 c35.7 0.2 45.8 0.5 45.8 1.5 0 0.6 -1.5 8.2 -3.3 16.7 l-3.3 15.5 -46.1 0.3 c-42.9 0.2 -46.2 0.3 -46.7 2 -0.2 0.9 -2.8 11.8 -5.6 24.2 -2.8 12.4 -5.3 23.3 -5.6 24.3 -0.5 1.6 2.4 1.7 51 1.7 48.5 0 51.6 0.1 51.6 1.8 0 0.9 -1.5 8.5 -3.3 16.7 l-3.2 15 -70.2 0.3 -70.3 0.2 0.6 -2.7z"></path>
  <path d="M602 766 c0 -0.5 9.2 -44.6 20.5 -98 11.3 -53.5 20.5 -97.3 20.5 -97.6 0 -0.2 29.9 -0.4 66.5 -0.4 62.7 0 66.5 0.1 66.4 1.8 0 0.9 -1.5 8.5 -3.3 16.7 l-3.2 15 -47.6 0.3 c-44.3 0.2 -47.7 0.3 -48.2 2 -0.5 1.9 -8.6 40 -8.6 40.7 0 0.3 20.7 0.5 46 0.5 l46 0 -0.5 2.3 c-1 4.2 -6.5 30.8 -6.5 31.2 0 0.3 -20.8 0.6 -46.2 0.7 l-46.3 0.3 -5.7 24.5 c-3.2 13.5 -5.7 25.1 -5.8 25.8 0 0.9 10.9 1.2 51.5 1.2 28.3 0 51.5 0.2 51.5 0.5 0 0.5 -5.9 28.1 -6.7 31.3 l-0.5 2.2 -69.9 0 c-44.7 0 -69.9 -0.4 -69.9 -1z"></path>
  <path d="M751.2 764.8 c0.3 -1.3 9.7 -45.6 20.9 -98.5 l20.4 -96.3 30 0 c46.2 0 57.5 1.5 70.6 9.2 20.6 12.2 32.3 41.2 30.5 75.8 -1.9 37.4 -12.9 64.4 -35.6 87 -8.9 8.9 -11.8 11.2 -19 14.7 -18.9 9.1 -27.8 10.3 -81.9 10.3 l-36.3 0 0.4 -2.2z m84.7 -31.9 c9 -1.4 16.7 -5.3 23.3 -11.9 16.8 -16.8 26.8 -43.9 26.8 -72.5 0 -16.9 -3.4 -28 -10.9 -35.8 -5.8 -6.2 -9.8 -7.7 -23 -8.8 -12.7 -0.9 -29.1 -1.2 -29.1 -0.4 0 0.3 -6.1 29.3 -13.5 64.6 -7.4 35.3 -13.5 64.5 -13.5 65 0 1.2 32.1 1.1 39.9 -0.2z"></path>
  <path d="M642 549.3 c-37.6 -2.7 -75.2 -10.7 -108.2 -22.9 l-9.8 -3.7 0 -110.8 0 -110.9 54.8 0 c30.2 0 55.2 -0.3 55.5 -0.7 0.4 -0.3 0.1 -1.3 -0.5 -2 -1 -1.2 -0.7 -1.4 1.7 -1.1 2.5 0.2 3.6 1.4 6.9 7.3 12.7 22.6 25.1 43.6 34.7 58.6 8.6 13.6 10.9 17.9 10.9 20.7 0 2.8 -0.3 3.3 -1.2 2.4 -0.7 -0.7 -1.6 -1.2 -2 -1.2 -0.4 0 -0.8 36.9 -0.8 81.9 0 73.7 -0.2 81.9 -1.6 82.5 -1.6 0.6 -31.8 0.5 -40.4 -0.1z"></path>
  <path d="M708 483 c0 -36.9 -0.2 -67.5 -0.5 -68.1 -0.4 -0.5 0.7 -0.9 2.3 -0.9 2.5 0 4.2 1.5 10.8 9.3 34 40.1 69.3 68.1 105.9 83.7 10.8 4.7 33.5 12 37.1 12 0.8 0 1.4 0.8 1.4 1.8 0 1.6 -3.1 2.8 -18.2 7.1 -35.4 10 -84.9 18.6 -119.3 20.6 -5.5 0.3 -12.1 0.8 -14.8 1.1 l-4.7 0.5 0 -67.1z"></path>
  <path d="M484 514.5 c-33 -6.2 -109.2 -13.5 -141.2 -13.5 l-4.8 0 0 -90.9 c0 -59.6 -0.3 -91.2 -1 -91.6 -0.5 -0.3 -1 -0.1 -1 0.4 0 0.6 -0.5 1.1 -1.1 1.1 -0.8 0 -1 -1.4 -0.6 -4.2 0.5 -4.4 25.7 -53.2 44.2 -85.8 16.8 -29.6 37.6 -61.8 49.8 -76.8 4 -4.9 5.6 -6.2 7.8 -6.2 2.2 0 2.6 0.4 2.2 2 -0.5 2 0 2 30.6 2 l31.1 0 0 183 c0 173.7 -0.1 183 -1.7 182.9 -1 -0.1 -7.4 -1.2 -14.3 -2.4z"></path>
  <path d="M852.1 509.9 c-49.9 -13 -95.1 -46.5 -138.9 -103.2 -7.5 -9.7 -9.2 -12.5 -9.2 -15.3 0 -1.9 0.5 -3.4 1 -3.4 0.6 0 1 0.5 1 1.1 0 0.5 0.5 0.7 1 0.4 0.6 -0.4 1 -8.8 1 -22.1 l0 -21.4 80 0 80 0 0 80.4 c0 44.2 0.3 81.1 0.6 82 0.3 0.9 1.2 1.6 2 1.6 0.8 0 1.4 0.7 1.4 1.5 0 2.3 -6.9 1.8 -19.9 -1.6z"></path>
  <path d="M163 504 c0 -2 1 -3 5.8 -5.5 9.3 -4.8 32.2 -20.5 43.9 -30 5.9 -4.9 18 -16.1 26.9 -24.9 23 -23.1 41.2 -45.6 60.7 -74.8 7.7 -11.5 9.6 -13.7 11.7 -13.8 l2.5 0 -0.3 72.5 -0.2 72.5 -20.8 0 c-33.2 0 -92.1 2.8 -122.4 5.8 l-7.8 0.8 0 -2.6z"></path>
  <path d="M149 498.4 c0 -0.3 0.7 -1.2 1.5 -2 1.3 -1.4 1.5 -16.6 1.5 -125.5 l0 -123.9 81 0 81 0 0 39.4 c0 25.3 0.4 39.7 1 40.1 0.6 0.3 1 0.1 1 -0.4 0 -0.6 0.5 -1.1 1 -1.1 0.6 0 1 1.5 1 3.4 0 2.4 -2.2 7 -8.1 16.7 -42.9 70.8 -95.7 125.1 -146.7 150.8 -5.5 2.8 -14.2 4.3 -14.2 2.5z"></path>
  <path d="M672.7 347.3 c-16.6 -27.3 -23.7 -40.6 -23.7 -44.5 0 -2.1 0.5 -3.8 1 -3.8 0.6 0 1 0.5 1 1 0 0.6 0.3 0.9 0.8 0.9 0.4 -0.1 7.8 -0.1 16.4 0 l15.7 0.1 0.3 28.5 0.3 28.5 -2.6 0 c-2.3 0 -3.6 -1.5 -9.2 -10.7z"></path>
  <path d="M338 218.5 l0 -67.5 39.3 0 c33.9 0 39.6 -0.2 41.5 -1.6 2.2 -1.5 2.2 -1.4 2.2 2.2 0 3 -1.2 5.3 -6.4 12.3 -15.3 20.5 -43.3 67.3 -63.1 105.4 -7.5 14.5 -9 16.7 -11.1 16.7 l-2.3 0 -0.1 -67.5z"></path>
 </g>
 <g fill="#000000">
  <path d="M72.6 525.8 c-3.4 -2.9 -3.8 -7.1 -0.8 -10.1 1.8 -1.8 3.5 -2 13.9 -2.3 27.1 -0.6 61.4 -11.8 90.5 -29.6 53.1 -32.6 105.1 -92.5 145.3 -167.8 4.9 -9.1 11 -20.3 13.6 -25 2.6 -4.7 8.6 -15.9 13.4 -25 21.2 -40.1 48.1 -85 63.1 -105.1 3.5 -4.7 6.4 -8.9 6.4 -9.3 0 -1.4 13.9 -17.3 22.1 -25.4 30.8 -30 58 -36.2 86.4 -19.6 5.8 3.4 11.4 8.1 20.1 16.8 23.3 23.4 39.9 49.8 75.8 121.1 24.6 48.8 34.2 67.3 41.6 80 8.5 14.8 17 28.7 18.7 30.5 1.3 1.5 18.6 27.1 22.7 33.8 1.2 1.8 6.1 8.6 11 15 30.6 40.1 65.2 70.9 99.1 87.9 26.7 13.4 49.1 19.2 81.5 21 6.5 0.3 12.7 1.2 14.2 2 5 2.4 4.9 9.2 -0.1 11.7 -2.2 1.2 -5.2 1.3 -16.1 0.5 -43.5 -2.8 -80.3 -16.3 -116.5 -42.7 -28.5 -20.7 -63.8 -57.7 -87.4 -91.5 -3.3 -4.8 -6.1 -8.9 -6.1 -9.1 0 -0.3 -4.5 -7.5 -10.1 -16.1 -5.5 -8.6 -15.1 -24.5 -21.4 -35.3 -6.2 -10.9 -13.8 -24 -16.8 -29.2 -3 -5.2 -14.4 -27 -25.3 -48.5 -38.2 -75.6 -55 -102.5 -76.6 -123 -15.9 -15.1 -26.3 -20 -40.8 -19.2 -16.2 0.9 -26 6.7 -47.5 28.2 -17.5 17.5 -25.3 27.7 -44.5 58.2 -16.6 26.3 -43 74.2 -62.6 113.3 -6.9 13.8 -24.5 44.4 -26.4 46 -0.4 0.3 -4.8 6.7 -9.9 14.2 -20 29.8 -37.7 51.5 -60.5 74.4 -23 23 -44.3 39.7 -67.6 53 -4.7 2.7 -8.7 5.2 -9 5.5 -1.1 1.4 -22.1 10.3 -33 14 -15.6 5.2 -30.1 7.9 -45 8.6 -12.3 0.6 -12.6 0.5 -15.4 -1.9z"></path>
 </g>
</svg><style>@media (prefers-color-scheme: light) { :root { filter: none; } }
@media (prefers-color-scheme: dark) { :root { filter: none; } }
</style></svg>