<?xml version="1.0" encoding="utf-8" ?><svg xmlns="http://www.w3.org/2000/svg" xmlns:xlink="http://www.w3.org/1999/xlink" width="1000" height="830" viewBox="0 0 1000 830"><path d="M418.227 150.343C420.059 146.168 424.427 141.859 427.447 138.447C440.621 123.562 455.775 108.511 474.628 101.162C489.129 95.5089 504.354 95.5734 518.653 101.854C566.273 122.773 605.829 210.465 628.753 256.035C633.224 264.922 637.606 273.875 642.309 282.641C645.392 288.387 649.301 294.266 651.71 300.298C658.2 301.641 676.677 300.598 684.182 300.881C684.863 317.859 684.182 338.445 684.099 355.627C691.736 367.517 699.188 378.337 707.203 389.955C708.528 386.286 707.876 352.805 708.068 345.926L814.377 345.95C830.014 345.944 853.234 345.21 868.467 346.084C867.82 357.755 868.227 372.591 868.227 384.621L868.249 454.849L868.203 489.386C868.196 493.5 867.898 506.105 868.715 509.265C875.086 509.417 881.376 511.155 887.707 511.76C894.228 512.382 901.336 511.551 907.707 512.903C909.926 513.374 912.17 514.138 913.726 515.878C915.081 517.394 915.447 519.31 915.255 521.287C915.042 523.471 913.981 525.303 912.198 526.607C906.87 530.503 874.619 525.761 867.318 524.311C865.294 523.909 863.27 523.496 861.35 522.72C857.188 525.357 848.918 527.451 844.082 528.772C807.735 538.704 770.21 544.954 732.717 548.444C724.467 549.212 716.199 548.979 708.031 550.132C707.341 514.913 708.36 479.35 707.883 444.1C707.762 435.144 707.675 425.402 708.176 416.5C702.749 410.873 689.513 391.496 684.731 384.594C684.85 384.01 684.796 383.556 684.791 382.944C670.583 360.828 656.597 338.913 643.939 315.866C642.003 312.34 637.65 302.51 634.76 300.714C627.637 288.85 622.165 276.645 615.731 264.21C592.518 219.352 570.105 167.707 534.371 131.414C524.368 121.255 509.606 111.822 495.097 112.431C470.184 113.476 453.192 133.785 437.485 150.195C434.6 150.645 426.46 162.421 424.286 165.393C395.807 204.328 373.482 247.201 351.022 289.74C347.897 295.66 337.649 312.535 337.189 318.335L337.331 318.667C333.313 324.215 316.889 354.98 313.646 357.741C315.25 376.68 314.273 405.556 314.279 425.293L314.309 470.727C314.315 480.273 314.529 490.541 314.004 500.01C294.786 499.997 276.033 499.672 256.834 500.935C248.329 501.495 239.941 501.193 231.026 501.839C216.344 502.902 201.118 503.206 186.383 504.433C179.345 505.019 173.031 505.953 165.962 505.832C143.333 518.287 114.933 526.878 89.1211 528.493C81.4747 528.972 65.3907 529.881 69.7134 517.327C71.6327 511.753 78.936 513.469 83.4713 513.077C101.42 512.904 119.026 508.955 135.728 502.465C140.938 500.461 146.167 497.931 151.357 496.173C152.289 492.731 151.913 479.957 151.906 475.581L151.86 438.352L151.863 315.502C151.866 293.25 151.36 269.016 152.106 246.958C205.94 247.096 260.737 246.303 314.464 247.049C313.698 261.845 314.631 279.614 314.258 294.698C314.102 301 313.956 321.927 314.704 326.719C320.209 316.498 326.582 306.283 331.758 295.764C333.452 292.32 336.961 286.55 338.061 283.217C337.327 249.819 338.232 216.157 337.866 182.74C337.752 172.226 337.78 161.45 338.093 150.946C356.766 150.489 376.225 151.255 394.946 150.944C399.655 150.866 414.769 151.367 418.227 150.343Z"/><path fill="#FEFEFE" d="M152.106 246.958C205.94 247.096 260.737 246.303 314.464 247.049C313.698 261.845 314.631 279.614 314.258 294.698C314.102 301 313.956 321.927 314.704 326.719C314.935 330.828 307.231 341.451 304.696 345.565C270.374 401.268 226.805 454.396 169.597 487.706C164.5 490.674 157.063 495.398 151.357 496.173C152.289 492.731 151.913 479.957 151.906 475.581L151.86 438.352L151.863 315.502C151.866 293.25 151.36 269.016 152.106 246.958Z"/><path fill="#FEFEFE" d="M708.068 345.926L814.377 345.95C830.014 345.944 853.234 345.21 868.467 346.084C867.82 357.755 868.227 372.591 868.227 384.621L868.249 454.849L868.203 489.386C868.196 493.5 867.898 506.105 868.715 509.265L868.034 509.667C863.301 509.341 856.021 507.095 851.428 505.858C808.389 494.265 771.652 466.171 741.663 433.999C736.849 428.836 707.38 395.248 707.203 389.955C708.528 386.286 707.876 352.805 708.068 345.926Z"/><path fill="#FEFEFE" d="M708.176 416.5C713.015 419.342 723.696 433.796 728.161 438.624C759.134 472.106 794.276 501.088 838.063 515.975C842.087 517.344 859.374 521.451 861.35 522.72C857.188 525.357 848.918 527.451 844.082 528.772C807.735 538.704 770.21 544.954 732.717 548.444C724.467 549.212 716.199 548.979 708.031 550.132C707.341 514.913 708.36 479.35 707.883 444.1C707.762 435.144 707.675 425.402 708.176 416.5Z"/><path fill="#FEFEFE" d="M313.646 357.741C315.25 376.68 314.273 405.556 314.279 425.293L314.309 470.727C314.315 480.273 314.529 490.541 314.004 500.01C294.786 499.997 276.033 499.672 256.834 500.935C248.329 501.495 239.941 501.193 231.026 501.839C216.344 502.902 201.118 503.206 186.383 504.433C179.345 505.019 173.031 505.953 165.962 505.832C166.026 505.585 166.476 504.601 166.616 504.525C221.938 474.768 265.432 427.788 300.426 376.355C303.324 372.096 310.151 360.703 313.646 357.741Z"/><path fill="#FEFEFE" d="M418.227 150.343C417.333 154.129 408.437 164.864 405.667 168.955C383.341 201.92 363.696 236.488 345.54 271.9C344.09 274.728 341.353 281.316 338.95 283.026L338.061 283.217C337.327 249.819 338.232 216.157 337.866 182.74C337.752 172.226 337.78 161.45 338.093 150.946C356.766 150.489 376.225 151.255 394.946 150.944C399.655 150.866 414.769 151.367 418.227 150.343Z"/><path fill="#FEFEFE" d="M651.71 300.298C658.2 301.641 676.677 300.598 684.182 300.881C684.863 317.859 684.182 338.445 684.099 355.627C679.534 353.054 653.069 306.788 651.71 300.298Z"/><path fill="#FEFEFE" d="M337.331 318.667L337.189 318.335C337.649 312.535 347.897 295.66 351.022 289.74C373.482 247.201 395.807 204.328 424.286 165.393C426.46 162.421 434.6 150.645 437.485 150.195C440.089 151.378 493.906 151.055 500.024 150.73L500.091 517.276C488.596 515.35 476.801 512.936 465.319 511.286C430.898 506.339 396.193 503.082 361.439 501.896C352.943 501.606 346.902 500.862 338.011 501.045C337.543 484.944 337.859 467.384 337.858 451.174L337.869 363.457C337.872 356.789 338.354 322.327 337.331 318.667Z"/><path fill="#FEFEFE" d="M634.76 300.714C637.65 302.51 642.003 312.34 643.939 315.866C656.597 338.913 670.583 360.828 684.791 382.944C684.796 383.556 684.85 384.01 684.731 384.594C683.777 390.695 684.213 412.213 684.214 419.163L684.245 504.022C684.248 509.838 684.948 547.337 683.389 549.112C679.861 550.58 668.301 550.024 663.806 550.037C614.887 550.178 569.6 540.063 524.081 522.836C523.714 514.017 523.934 503.742 523.931 494.792L523.927 445.018L523.979 300.673C552.386 301.827 581.664 300.271 610.173 300.893C617.905 301.061 627.071 301.192 634.76 300.714Z"/><path fill="#FEFEFE" d="M792.534 569.954L830.197 569.875C844.77 569.857 863.605 569.499 877.807 572.796C892.347 576.183 905.89 586.874 912.877 600.061C938.666 648.735 918.859 728.692 870.863 755.873C851.338 768.004 824.67 767.062 802.484 767.057L750.701 766.998C751.619 761.356 753.651 753.127 754.892 747.287L763.97 704.521L792.534 569.954ZM795.685 733.94C812.265 734.028 838.626 736.298 851.818 727.166C880.61 707.996 896.649 648.356 878.855 616.961C875.481 611.007 867.416 605.517 860.645 604.572C848.676 603.119 835.459 603.009 823.463 603.039C821.841 608.297 820.616 615.153 819.479 620.639L813.845 647.636L795.685 733.94Z"/><path fill="#FEFEFE" d="M292.373 570.038C302.095 569.485 317.208 569.888 327.221 569.925C325.185 583.49 320.741 601.593 317.783 615.462L300.882 695.532L290.747 743.703C289.99 747.335 286.557 765.144 285.521 767.017L250.395 767.022C247.849 756.986 241.773 741.56 238.359 731.407L205.791 637.013C204.458 646.38 201.14 659.992 199.145 669.527L185.248 735.075C184.017 740.844 178.913 762.992 178.968 767.015L142.977 767.004C144.307 762.204 145.678 754.737 146.756 749.688L153.852 716.169L174.797 616.937L181.127 586.801C182.137 581.986 183.138 576.971 184.27 572.175C184.64 570.607 184.667 570.812 185.809 570.026C196.514 569.652 209.02 569.803 219.772 569.964C225.58 585.191 230.766 601.507 236.163 616.974L264.642 699.344C267.614 687.749 270.161 673.993 272.623 662.215L284.917 603.991C287.2 593.148 289.469 580.527 292.373 570.038Z"/><path fill="#FEFEFE" d="M495.763 570.02C513.46 569.608 532.201 569.887 549.995 569.884L628.16 569.96C627.457 572.128 626.896 574.409 626.491 576.653C624.851 585.746 622.334 594.903 620.791 603.981L525.251 604.048C523.671 616.496 518.601 633.461 516.541 646.963L577.088 646.971C586.282 646.968 599.357 646.562 608.226 647.276C606.127 658.551 603.538 669.616 601.4 680.833C594.339 681.342 584.101 681.055 576.727 681.055L533.28 681.04C526.341 681.033 516.749 680.736 510.035 681.366C508.027 682.788 505.571 695.668 504.751 699.03C503.481 705.441 498.79 727.451 496.806 732.975L566.311 732.961C572.333 732.962 594.838 732.533 599.752 733.728C600.307 737.196 594.543 761.875 593.42 766.973C586.563 767.142 579.467 767.083 572.601 767.02C532.772 766.654 492.781 767.529 452.971 767.025C454.194 762.385 455.353 755.745 456.39 750.86L463.36 718.023L484.171 619.266L490.578 588.784C491.303 585.326 493.363 571.725 495.763 570.02Z"/><path fill="#FEFEFE" d="M643.624 569.971C672.067 569.461 701.842 569.874 730.374 569.872L757.429 569.874C763.15 569.876 770.136 569.624 775.687 570.511C776.322 573.535 770.426 598.996 769.382 603.891C747.372 604.517 724.424 603.613 702.342 603.978C693.299 604.127 682.839 603.623 673.942 604.225C670.412 617.804 668.276 633.146 664.739 646.952C695.12 647.21 726.659 646.341 756.886 647.115C754.348 658.166 752.654 670.019 749.657 681.026C719.06 681.131 688.141 680.716 657.579 681.155C656.454 686.769 654.856 692.817 653.622 698.544C650.753 709.903 648.376 721.509 645.535 732.938C668.686 733.265 692.131 732.748 715.297 732.976C725.935 733.081 738.755 732.575 749.21 733.261C746.506 744.445 744.692 755.781 741.804 767.011L601.779 767.002C603.644 754.021 608.275 735.271 611.063 722.036L629.951 632.78L638.455 592.175C639.39 587.646 642.089 573.283 643.624 569.971Z"/><path fill="#FEFEFE" d="M389.495 567.04C412.306 566.44 432.687 566.883 449.967 584.279C463.195 597.595 464.585 609.431 467.129 626.919C460.139 626.788 453.406 627.834 446.432 627.945C441.597 628.022 436.762 628.467 431.927 628.703C429.482 627.497 430.303 624.715 429.744 622.301C424.786 605.937 418.046 601.618 401.152 599.865C380.874 597.761 360.501 613.423 376.864 633.331C381.256 637.893 387.45 640.524 392.779 643.547C421.06 659.592 453.755 666.92 453.141 706.458C452.56 743.917 422.81 770.241 385.864 769.995C352.949 770.276 320.453 762.437 313.141 724.28C311.584 716.158 311.962 710.308 312.091 702.054C324.547 702.167 335.208 700.948 348 701.116C347.903 710.938 348.197 723.576 357.408 729.648C367.86 736.319 381.916 736.166 393.773 734.468C406.019 732.809 418.03 720.65 415.252 707.708C412.419 694.511 390.626 687.051 379.632 680.963C359.871 670.021 341 663.664 336.094 638.557C330.004 607.393 345.765 577.352 377.218 569.395C381.391 568.34 385.336 567.915 389.495 567.04Z"/><path fill="#FEFEFE" d="M130.503 569.959C142.847 569.837 156.037 569.719 168.324 569.985C165.462 585.172 161.846 600.823 158.653 615.999L138.519 711.441L130.578 749.022C129.55 753.883 127.372 762.509 126.847 767.009L88.9303 767.011C92.6712 745.131 98.8247 719.789 103.494 697.832L130.503 569.959Z"/></svg>